<svg xmlns="http://www.w3.org/2000/svg" version="1.1" xmlns:xlink="http://www.w3.org/1999/xlink" xmlns:svgjs="http://svgjs.com/svgjs" width="512" height="512" x="0" y="0" viewBox="0 0 512 512" style="enable-background:new 0 0 512 512" xml:space="preserve" class=""><g><g xmlns="http://www.w3.org/2000/svg"><path d="m255.997 512c-100.024 0-155.351-8.243-191.37-28.636-26.475-14.971-42.962-37.53-42.962-58.793v-282.25c0-31.677 23.214-67.907 60.32-94.377 30.816-21.914 86.138-47.944 174.012-47.944 152.969 0 234.337 82.657 234.337 142.321v282.025c0 21.479-16.492 44.042-43.182 59.012-35.798 20.399-91.125 28.642-191.155 28.642" fill="#f8ebdb" data-original="#f8ebdb" class=""></path><path d="m434.839 461.071c-34.898 19.697-94.77 25.329-177.587 25.329-82.816 0-142.689-5.632-177.582-25.329-20.952-11.796-31.55-27.878-31.55-39.41 0-6.562 3.493-10.322 11.269-10.322h395.719c7.782 0 11.275 3.758 11.275 10.322.005 11.532-10.599 27.612-31.54 39.41z" fill="#ff8725" data-original="#ff8725"></path><path d="m455.109 155.474h-395.72c-7.782 0-11.269-4.019-11.269-11.254 0-42.895 64.563-118.62 209.132-118.62 143.233 0 209.137 75.725 209.137 118.62-.001 7.235-3.492 11.254-11.28 11.254z" fill="#ff8725" data-original="#ff8725"></path><g fill="#f81e00"><path d="m132.411 332.401c-1.208-1.874-1.336-3.082-1.336-3.615 0-1.475.804-2.544 2.412-4.019 3.759-3.492 13.026-12.201 18.125-20.107 3.891-6.03 5.499-11.525 5.499-16.077 0-11.662-10.598-20.782-22.15-20.782-7.383 0-14.362 4.157-19.057 11.796-6.309 10.184-13.829 21.98-18.656 26.675-1.209 1.209-1.879 1.475-2.816 1.475-1.614 0-2.284-1.075-2.284-2.815v-13.4c0-13.134-7.782-23.727-21.879-23.727-14.228 0-21.884 10.588-21.884 23.727v82.565c0 13.133 7.649 23.731 21.884 23.731 14.096 0 21.879-10.588 21.879-23.731v-19.026c0-1.613.67-2.816 2.284-2.816 2.15 0 2.687 2.147 3.226 3.217 3.087 7.373 12.072 23.05 20.402 32.302 5.636 6.165 12.616 10.056 20 10.056 12.483 0 22.958-10.86 22.958-22.523 0-7.235-3.092-12.597-8.996-19.027-7.52-8.192-16.384-18.918-19.61-23.875z" fill="#f81e00" data-original="#f81e00" class=""></path><path d="m299.809 260.157c21.073 0 34.365-13.404 34.365-32.973 0-12.462-7.526-21.043-22.554-21.043h-4.291c-7.926 0-14.1 3.758-14.1 12.201 0 7.506 6.579 11.126 11.546 11.126 2.55 0 4.168.804 4.168 2.683 0 2.406-2.816 4.019-6.042 4.019-10.071 0-16.916-7.107-16.916-20.378 0-14.74 9.401-20.096 16.646-20.096 8.858 0 10.336 4.557 16.512 4.557 7.116 0 11.95-5.898 11.95-12.063 0-4.557-2.017-8.038-5.104-10.455-5.637-4.157-13.553-7.235-25.365-7.235-20.813 0-41.078 13.67-41.078 45.302-.011 30.281 20.26 44.355 40.263 44.355z" fill="#f81e00" data-original="#f81e00" class=""></path><path d="m102.751 213.781c-.666-.538-1.336-1.07-1.336-1.607 0-.666.399-.938 1.075-1.741 2.545-2.949 5.095-7.639 5.095-14.479 0-16.076-10.875-24.663-27.787-24.663h-15.975c-10.604 0-15.703 6.175-15.703 14.479v59.105c0 8.314 5.1 14.479 15.698 14.479h18.934c17.853 0 28.723-11.929 28.723-26.809 0-11.93-7.117-17.423-8.724-18.764zm-31.007-19.431c0-1.74 1.076-3.087 3.354-3.087h1.746c5.77 0 7.521 4.019 7.521 7.511 0 3.216-1.742 7.772-7.521 7.772h-1.741c-2.284 0-3.36-1.337-3.36-3.082zm5.771 44.902h-2.411c-2.284 0-3.36-1.341-3.36-3.087v-10.45c0-1.74 1.076-3.087 3.354-3.087h2.417c6.446 0 8.32 4.285 8.32 8.177 0 3.491-1.879 8.447-8.32 8.447z" fill="#f81e00" data-original="#f81e00" class=""></path><path d="m462.088 236.702c-4.567-5.76-7.381-9.511-9.122-14.202-.405-1.076-.138-2.018 1.075-2.95 4.163-3.216 8.996-10.322 8.996-21.576 0-17.023-14.1-26.675-31.15-26.675h-15.162c-10.604 0-15.702 6.159-15.702 14.475v59.78c0 8.039 4.695 14.464 13.292 14.464l-.005.001c8.59 0 13.286-6.436 13.286-14.474v-14.208c0-1.742.808-2.545 2.151-2.545 1.608 0 2.14.937 2.406 2.545 1.214 6.835 4.433 16.082 8.054 20.776 4.568 6.037 8.858 7.917 13.158 7.917 6.974 0 13.021-5.5 13.021-12.341-.002-4.556-1.881-7.909-4.298-10.987zm-30.736-27.878h-1.878c-2.284 0-3.354-1.331-3.354-3.082v-9.109c0-1.74 1.075-3.092 3.354-3.092h1.878c5.642 0 7.383 4.024 7.383 7.511 0 3.354-1.74 7.772-7.383 7.772z" fill="#f81e00" data-original="#f81e00" class=""></path><path d="m193.626 267.796c-15.032 0-23.225 11.254-23.225 25.329v79.355c0 14.08 8.193 25.334 23.225 25.334 15.031 0 23.219-11.258 23.219-25.334v-79.355c0-14.065-8.182-25.329-23.219-25.329" fill="#f81e00" data-original="#f81e00" class=""></path><path d="m432.289 319.401h-6.575c-11.811 0-20.94 5.494-20.94 17.551 0 10.993 9.934 16.22 17.315 16.22 3.625 0 6.175 1.075 6.175 3.886 0 3.482-4.296 5.76-8.858 5.76-15.171 0-25.508-10.322-25.508-29.491 0-21.309 14.096-29.082 24.965-29.082 13.292 0 15.437 6.707 24.698 6.707 10.736 0 17.986-8.715 17.986-17.562 0-6.564-2.953-11.66-7.649-15.145-8.192-6.036-20.535-10.462-37.99-10.462-31.273 0-61.747 19.702-61.747 65.543 0 43.826 30.464 64.338 60.539 64.338 31.539 0 51.541-19.435 51.541-47.852.008-17.949-11.26-30.411-33.952-30.411" fill="#f81e00" data-original="#f81e00" class=""></path><path d="m381.55 259.354c7.526 0 13.43-4.424 13.43-12.466 0-7.911-5.909-12.334-13.425-12.334h-12.082c-2.278 0-3.354-1.336-3.354-3.082v-2.55c0-1.741 1.076-3.082 3.36-3.082h9.262c6.447 0 11.546-3.886 11.546-10.726 0-6.83-5.1-10.721-11.546-10.721h-9.266c-2.279 0-3.354-1.341-3.354-3.087v-2.145c0-1.741 1.075-3.082 3.36-3.082h12.077c7.517 0 13.425-4.424 13.425-12.462 0-7.916-5.909-12.339-13.425-12.339h-25.369c-10.598 0-15.703 6.164-15.703 14.479v59.106c0 8.309 5.1 14.479 15.703 14.479h25.369v.016h-.006" fill="#f81e00" data-original="#f81e00" class=""></path><path d="m150.94 260.019c21.745 0 33.29-13.005 33.29-29.348v-45.174c0-8.038-4.695-14.479-13.291-14.479-8.591 0-13.286 6.441-13.286 14.479v43.694c0 3.21-1.879 6.963-6.712 6.963s-6.451-3.753-6.451-6.963v-43.694c0-8.038-4.828-14.479-13.424-14.479-8.591 0-13.286 6.441-13.286 14.479v45.169c.006 16.354 11.418 29.349 33.162 29.349z" fill="#f81e00" data-original="#f81e00" class=""></path><path d="m253.904 236.698c-3.891-5.095-7.383-9.518-9.124-14.203-.404-1.075-.137-2.017 1.076-2.954 4.163-3.21 8.996-10.316 8.996-21.575 0-17.024-14.101-26.676-31.15-26.676h-15.176c-10.598 0-15.703 6.165-15.703 14.479v59.781c0 8.038 4.701 14.48 13.292 14.48s13.292-6.442 13.292-14.48v-14.203c0-1.74.803-2.55 2.145-2.55 1.613 0 2.145.938 2.411 2.55 1.209 6.83 4.428 16.077 8.054 20.777 4.565 6.02 8.856 7.895 13.157 7.895 6.98 0 13.026-5.493 13.026-12.334 0-4.557-1.879-7.91-4.296-10.987zm-30.75-27.878h.004-.005.001-1.88c-2.284 0-3.354-1.337-3.354-3.083v-9.108c0-1.74 1.075-3.087 3.354-3.087h1.879c5.642 0 7.383 4.024 7.383 7.511 0 3.342-1.741 7.766-7.382 7.767z" fill="#f81e00" data-original="#f81e00" class=""></path><path d="m322.353 267.796c-13.823 0-21.34 10.317-21.34 23.322v28.948c0 2.406-.809 3.487-2.284 3.487-1.075 0-1.879-.666-2.816-2.545l-18.657-36.183c-7.117-13.809-14.5-17.023-22.953-17.023-14.095 0-21.883 10.583-21.883 23.859v82.836c0 13.004 7.516 23.322 21.34 23.322 13.829 0 21.34-10.323 21.34-23.322v-28.949c0-2.406.809-3.492 2.284-3.492 1.075 0 1.884.671 2.816 2.55l18.656 36.188c7.117 13.809 14.767 17.024 22.958 17.024 14.096 0 21.884-10.589 21.884-23.859v-82.836c0-13.005-7.518-23.322-21.346-23.322z" fill="#f81e00" data-original="#f81e00" class=""></path></g></g></g></svg>