<svg xmlns="http://www.w3.org/2000/svg" version="1.1" xmlns:xlink="http://www.w3.org/1999/xlink" xmlns:svgjs="http://svgjs.com/svgjs" width="512" height="512" x="0" y="0" viewBox="0 0 1706.66 1706.66" style="enable-background:new 0 0 512 512" xml:space="preserve" class=""><g><g xmlns="http://www.w3.org/2000/svg" id="Layer_x0020_1"><path d="m1600.27 1281.75h-653.81l11.46 197.31c1.49 25.59 22.04 45.65 46.78 45.65h537.29c24.75 0 45.29-20.06 46.81-45.66l11.46-197.3z" fill="#ff8725" data-original="#000000" class=""></path><g fill-rule="nonzero"><path d="m712.28 1524.71h-542.83c-58.96 0-108.55-40.89-121.93-95.8 4.78.74 9.69 1.13 14.68 1.13h757.33c4.99 0 9.89-.39 14.68-1.13-13.37 54.91-62.96 95.8-121.93 95.8z" fill="#ff8725" data-original="#000000" class=""></path><path d="m819.53 1396.71h-757.33c-34.29 0-62.19-27.92-62.19-62.21v-43.78c65.62-16.47 138.83 11.15 200.48 24.23 2.2.47 55.33 11.03 119.4-30.39l3.35-2.15c35.46-22.97 36.85-23.83 79.74-11.76 18.32 5.17 35.22 13.18 51.57 20.94 28.46 13.53 57.52 27.32 94.1 27.32 23.7-.02 50.56-5.79 82.42-21.18 19.61-9.45 31.97-18.22 41-24.61 17.01-12 20.54-14.53 59.31-5.33 23.34 5.54 46.51 14.93 68.89 27.91 10.54 7.45 49.35 15.68 81.48 12.13v26.68c-.02 34.29-27.92 62.2-62.21 62.2zm-819.53-144.2v-53.41c0-34.3 27.9-62.21 62.19-62.21h757.33c34.29 0 62.21 27.92 62.21 62.21v68.79c-17.73 1.87-53.7-2.34-60.47-6.26-26.04-15.22-53.18-26.25-80.67-32.78-51.47-12.21-66.01-6.54-91.64 11.61-8.76 6.19-18.68 13.22-35.29 21.23-63.86 30.85-98.35 14.47-141.98-6.24-17.85-8.47-36.29-17.22-57.87-23.31-57.92-16.35-71.09-10.03-112.32 16.67l-3.32 2.15c-44.99 29.07-80.96 26.03-88.17 25.03-88.12-34.67-165.17-31.06-210.01-23.5z" fill="#ff8725" data-original="#000000" class=""></path><path d="m44.06 1105.3c3.49-124.33 105.71-224.43 230.87-224.43h331.86c125.17 0 227.39 100.09 230.87 224.43-5.87-1.13-11.94-1.74-18.14-1.74h-757.33c-6.2 0-12.26.6-18.14 1.74z" fill="#ff8725" data-original="#000000" class=""></path><path d="m1673.26 619.9h-799.81c-18.41 0-33.4-14.98-33.4-33.4v-77.91c0-18.42 14.99-33.4 33.4-33.4h799.81c18.41 0 33.4 14.98 33.4 33.4v77.91c0 18.43-14.99 33.4-33.4 33.4z" fill="#ff8725" data-original="#000000" class=""></path><path d="m1193.31 441.85v-179.87c0-44.13 35.9-80.03 80.04-80.03s80.04 35.9 80.04 80.03v179.87h-160.09z" fill="#ff8725" data-original="#000000" class=""></path><path d="m1273.37 1186.22c-35.76 0-69.39-13.94-94.69-39.22-48.41-48.42-51.92-125.01-10.54-177.52l188.07 188.07c-23.51 18.58-52.4 28.67-82.83 28.67zm-82.84-239.16c23.53-18.59 52.41-28.66 82.84-28.66 35.78 0 69.41 13.93 94.7 39.2 25.29 25.31 39.22 58.93 39.22 94.69 0 30.44-10.09 59.33-28.67 82.84l-188.08-188.08z" fill="#ff8725" data-original="#000000" class=""></path></g><path d="m1155.11 1170.57c-112.4-112.38-26.35-285.5 118.26-285.5 44.6 0 86.73 17.43 118.26 48.97 31.55 31.54 48.98 73.65 48.98 118.26 0 90.98-76.22 167.25-167.24 167.25-44.6 0-86.72-17.44-118.26-48.98zm-210.96 71.17h658.45l22.02-378.88h-702.48l22.02 378.88z" fill="#ff8725" data-original="#000000" class=""></path><path d="m919.8 822.86h707.13l9.86-169.63h-726.84z" fill="#ff8725" data-original="#000000" class=""></path></g></g></svg>